<svg xmlns="http://www.w3.org/2000/svg" width="122.38" height="112.812" viewBox="0 0 122.38 112.812">
  <defs>
    <style>
      .cls-1 {
        fill-rule: evenodd;
        opacity: 0.1;
      }
    </style>
  </defs>
  <path id="form-bg.svg" class="cls-1" d="M1189.69,355.388l-69.36-40.049a12.927,12.927,0,0,0-17.66,4.652l-27.14,47.017a12.909,12.909,0,0,0,4.8,17.613l69.34,40.038a12.93,12.93,0,0,0,17.66-4.652l27.13-47A12.911,12.911,0,0,0,1189.69,355.388Zm-27.47,61.67a7.024,7.024,0,0,1-9.59,2.526l-69.37-40.049a7.015,7.015,0,0,1-2.6-9.567l27.13-47a7.023,7.023,0,0,1,9.59-2.527l69.35,40.037a7.015,7.015,0,0,1,2.6,9.567l-27.13,47Zm-14.89-40.718,33.98-7a2.935,2.935,0,0,0,2.27-3.488,2.992,2.992,0,0,0-3.52-2.283l-46.87,9.684-2.95-8.838a0.113,0.113,0,0,1-.01-0.078,4.391,4.391,0,0,0-.21-0.6l-11.99-36a2.965,2.965,0,0,0-3.74-1.887,2.915,2.915,0,0,0-1.87,3.718l11.09,33.252-34.75,7.943a2.93,2.93,0,0,0-2.19,3.531,3.054,3.054,0,0,0,1.41,1.9,2.99,2.99,0,0,0,2.14.331l35.27-8.046,3.04,9.115a2.972,2.972,0,0,0,3.43,1.956l9.68-1.994,10.42,34.693a2.931,2.931,0,0,0,1.36,1.717,2.971,2.971,0,0,0,2.32.284,2.935,2.935,0,0,0,1.98-3.652Z" transform="translate(-1073.81 -313.594)"/>
</svg>
