<svg xmlns="http://www.w3.org/2000/svg" width="127" height="127" viewBox="0 0 127 127">
  <defs>
    <style>
      .cls-1 {
        fill: #fff;
        fill-rule: evenodd;
        opacity: 0.1;
      }
    </style>
  </defs>
  <path id="res.svg" class="cls-1" d="M639.855,3997.57l-61.627-61.63a2.054,2.054,0,0,0-3.051.16,16.3,16.3,0,0,0-3,9.26c-0.25,7.39,3.533,15.04,11.246,22.76l15.437,15.43a7.033,7.033,0,0,0,9.966,0,0.458,0.458,0,0,1,.618,0l2.495,2.5a0.552,0.552,0,0,1-.033.53,7.084,7.084,0,0,0,1.426,7.92l14.8,14.8A8.294,8.294,0,1,0,639.855,3997.57Zm-2.909,8.82a4.184,4.184,0,0,1-5.911,0l-14.8-14.8a2.954,2.954,0,0,1-.594-3.3,4.532,4.532,0,0,0-.8-5.15l-2.5-2.5a4.559,4.559,0,0,0-6.437,0,2.93,2.93,0,0,1-4.147,0l-15.436-15.43c-11.946-11.95-10.636-20.65-9.09-24.44l59.707,59.71A4.183,4.183,0,0,1,636.946,4006.39Zm4.77-66.22a2.063,2.063,0,0,0-2.909,0l-13.129,13.13a2.057,2.057,0,0,0,2.909,2.91l13.129-13.13A2.059,2.059,0,0,0,641.716,3940.17Zm-5.589-7.27a2.063,2.063,0,0,0-2.909,0l-13.383,13.38a10.782,10.782,0,0,0-3.323,7.16l-0.091,3.82-3.73,3.73a2.057,2.057,0,1,0,2.909,2.91l4.312-4.31a2.054,2.054,0,0,0,.6-1.4l0.112-4.66a6.763,6.763,0,0,1,2.118-4.34l13.383-13.38A2.059,2.059,0,0,0,636.127,3932.9Zm-35.169,56.85a2.045,2.045,0,0,0-2.909,0l-16.459,16.46a4.179,4.179,0,1,1-5.91-5.91l15.887-15.89a2.057,2.057,0,0,0-2.909-2.91l-15.887,15.89a8.294,8.294,0,0,0,11.729,11.73l16.459-16.46A2.058,2.058,0,0,0,600.958,3989.75Zm48.335-43.68a2.045,2.045,0,0,0-2.909,0L633,3959.45a6.342,6.342,0,0,1-4.384,1.99l-4.836-.07a2.071,2.071,0,0,0-1.486.6l-4.312,4.32a2.047,2.047,0,0,0,0,2.9,2.039,2.039,0,0,0,2.909,0l3.7-3.69,3.965,0.06a10.383,10.383,0,0,0,7.357-3.2l13.382-13.38A2.057,2.057,0,0,0,649.293,3946.07Zm3.108-18.47a63.5,63.5,0,1,0,18.6,44.9A63.058,63.058,0,0,0,652.4,3927.6Zm-2.909,86.89a59.38,59.38,0,1,1,17.394-41.99A58.988,58.988,0,0,1,649.492,4014.49Z" transform="translate(-544 -3909)"/>
</svg>
